# xmcd
#
# Track frame offsets: 
#        150
#        17598
#        38704
#        55960
#        73000
#        88928
#        107144
#        121239
#        138477
#        155183
#
# Disc length: 2358 seconds
#
# Revision: 2
# Processed by: cddbd v1.5.1PL0 Copyright (c) Steve Scherf et al.
# Submitted via: ExactAudioCopy v0.95a5
#
DISCID=8b09340a
DTITLE=潘玮柏 - 高手潘玮柏
DYEAR=2005
DGENRE=R&B
TTITLE0=谁是MVP
TTITLE1=不得不爱
TTITLE2=高手
TTITLE3=禅舞不二
TTITLE4=不要忘了我
TTITLE5=Baby Bye
TTITLE6=决战斗室
TTITLE7=跟我走吧
TTITLE8=一指神功
TTITLE9=爱很容易
EXTD=
EXTT0=
EXTT1=
EXTT2=
EXTT3=
EXTT4=
EXTT5=
EXTT6=
EXTT7=
EXTT8=
EXTT9=
PLAYORDER=
